<<
{ |: b4:8 b4:8 b4:4 :|
b4:8 d5:8 g4:8. a4:16 b4:4 r:4
c5:8 c5:8 c5:8. c5:16 c5:8 b4:8 b4:8 b4:16 b4:16
b4:8 a4:8 a4:8 g4:8 a4:8 r:4 }

{ |: g4:8 g4:8 g4:4 :|
g4:8 g5:8 d4:8. d4:16 g4:4 r:4
e4:8 e4:8 e4:8. e4:16 e4:8 d4:8 d4:8 G4:16 G4:16
g4:8 g4:8 g4:8 g4:8 f#4:8 r:4 }

{ |: d4:8 d4:8 d4:4 :|
d4:8 b3:8 b3:8. c4:16 d4:4 r:4
g3:8 g3:8 g3:8. g3:16 g3:8 g3:8 g3:8 d4:16 d4:16
c#4:8 c#4:8 c#4:8 c#4:8 d4:8 r:4 }

{ |: g3:8 g3:8 g3:4 :|
g3:8 g3:8 g3:8. g3:16 g3:4 r:4
c3:8 c3:8 c3:8. c3:16 g2:8 g2:8 g2:8 g3:16 g3:16
e3:8 e3:8 a3:8 a3:8 d3:8 r:4 }
>>
